<svg fill="#212121" xmlns="http://www.w3.org/2000/svg" xmlns:xlink="http://www.w3.org/1999/xlink" version="1.1" x="0px" y="0px" viewBox="0 0 32 32" enable-background="new 0 0 32 32" xml:space="preserve"><g><g><rect x="1.1" y="15.3" fill="#212121" width="14" height="1.5"></rect></g><g><path fill="#212121" d="M26,31.3H10.8c-2.7,0-4.9-2.1-4.9-4.6v-6h1.5v6c0,1.7,1.5,3.1,3.4,3.1H26c1.9,0,3.4-1.4,3.4-3.1V5.4    c0-1.7-1.5-3.1-3.4-3.1H10.8c-1.9,0-3.4,1.4-3.4,3.1v6H5.9v-6c0-2.5,2.2-4.6,4.9-4.6H26c2.7,0,4.9,2.1,4.9,4.6v21.3    C30.9,29.2,28.7,31.3,26,31.3z"></path></g><g><polygon fill="#212121" points="10.8,21.4 9.7,20.3 14.1,16 9.7,11.7 10.8,10.6 16.2,16   "></polygon></g></g></svg>