<svg fill="#212121" xmlns:dc="http://purl.org/dc/elements/1.1/" xmlns:cc="http://creativecommons.org/ns#" xmlns:rdf="http://www.w3.org/1999/02/22-rdf-syntax-ns#" xmlns:svg="http://www.w3.org/2000/svg" xmlns="http://www.w3.org/2000/svg" xmlns:sodipodi="http://sodipodi.sourceforge.net/DTD/sodipodi-0.dtd" xmlns:inkscape="http://www.inkscape.org/namespaces/inkscape" version="1.1" x="0px" y="0px" viewBox="0 0 100 100"><g transform="translate(0,-952.36218)"><path style="color:#000000;enable-background:accumulate;" d="m 18.000001,958.36219 0,88.00001 63.999998,0 0,-72.00001 -13.999998,0 c -1.083699,-0.011 -1.991,-1.0255 -2,-2 l 0,-14 z m 52,2 0,10 9.999998,0 z m -40,16.99998 40,0 c 1.1046,0 2,0.8954 2,2 0,1.1046 -0.8954,2 -2,2 l -40,0 c -1.1046,0 -2,-0.8954 -2,-2 0,-1.1046 0.8954,-2 2,-2 z m 0,18 40,0 c 1.1046,0 2,0.8954 2,2 0,1.1046 -0.8954,2 -2,2 l -40,0 c -1.1046,0 -2,-0.8954 -2,-2 0,-1.1046 0.8954,-2 2,-2 z m 0,18.00003 40,0 c 1.1046,0 2,0.8954 2,2 0,1.1046 -0.8954,2 -2,2 l -40,0 c -1.1046,0 -2,-0.8954 -2,-2 0,-1.1046 0.8954,-2 2,-2 z m 43.874998,7.9688 c 0.799729,-0.059 1.61229,0.4156 1.9547,1.1407 0.34242,0.7251 0.19239,1.6539 -0.3609,2.2343 l -12.999997,14 c -0.66138,0.7144 -1.87324,0.8284 -2.6563,0.25 l -8,-6 c -0.85535,-0.6169 -1.06567,-1.9614 -0.43954,-2.81 0.62613,-0.8485 1.97284,-1.0442 2.81454,-0.4088 l 6.5625,4.9375 11.7813,-12.6875 c 0.34197,-0.3796 0.834127,-0.6199 1.343697,-0.6562 z m -43.874998,10.0312 15,0 c 1.1046,0 2,0.8954 2,2 0,1.1046 -0.8954,2 -2,2 l -15,0 c -1.1046,0 -2,-0.8954 -2,-2 0,-1.1046 0.8954,-2 2,-2 z" fill="#212121" stroke="none" marker="none" visibility="visible" display="inline" overflow="visible"></path></g></svg>