<svg fill="#212121" xmlns="http://www.w3.org/2000/svg" xmlns:xlink="http://www.w3.org/1999/xlink" version="1.1" x="0px" y="0px" viewBox="0 0 100 100" style="enable-background:new 0 0 100 100;" xml:space="preserve"><g><path d="M54.9,60.4h-3.4V57c0-0.8-0.7-1.5-1.5-1.5c-0.8,0-1.5,0.7-1.5,1.5v3.4h-3.4c-0.8,0-1.5,0.7-1.5,1.5c0,0.8,0.7,1.5,1.5,1.5   h3.4v3.4c0,0.8,0.7,1.5,1.5,1.5c0.8,0,1.5-0.7,1.5-1.5v-3.4h3.4c0.8,0,1.5-0.7,1.5-1.5C56.4,61.1,55.7,60.4,54.9,60.4z"></path><path d="M84.8,34.9H73.8L63.6,19.5c-0.8-1.2-2.3-1.5-3.5-0.7c-1.2,0.8-1.5,2.3-0.7,3.5l8.4,12.7H32.2l8.4-12.7   c0.8-1.2,0.4-2.7-0.7-3.5c-1.1-0.8-2.7-0.4-3.5,0.7L26.2,34.9H14.8c-1.4,0-2.5,1.1-2.5,2.5v7.2c0,1.4,1.1,2.5,2.5,2.5h2.8l6.9,32.4   c0.1,0.7,0.8,1.2,1.5,1.2h48.2c0.7,0,1.3-0.5,1.5-1.2l6.9-32.4h2.3c1.4,0,2.5-1.1,2.5-2.5v-7.2C87.3,36,86.1,34.9,84.8,34.9z    M50,72.4c-5.8,0-10.5-4.7-10.5-10.5c0-5.8,4.7-10.5,10.5-10.5s10.5,4.7,10.5,10.5C60.5,67.7,55.8,72.4,50,72.4z M82.3,42.1h-5.4   c0.4-0.7,0.5-1.5,0.2-2.2h5.2V42.1z M71.1,39.9l1.5,2.2H27.4l1.5-2.2H71.1z M17.3,39.9h5.7c-0.3,0.7-0.2,1.6,0.2,2.2h-5.9V39.9z"></path></g></svg>