<svg fill="#4290F4" xmlns="http://www.w3.org/2000/svg" xmlns:xlink="http://www.w3.org/1999/xlink" version="1.1" x="0px" y="0px" viewBox="0 0 100 100" enable-background="new 0 0 100 100" xml:space="preserve"><path d="M50.855,37.651c0,0,2.684,7.157,4.472,9.84c1.107,1.664,2.684,4.596,8.945,4.596c6.261,0,7.834-2.932,8.945-4.596  c1.789-2.683,4.472-9.84,4.472-9.84c0.988,0,1.789-0.801,1.789-1.788v-3.578c0-0.989-0.801-1.789-1.789-1.789v-2.684  c0-6.261-3.542-11.629-13.417-11.629c-9.84,0-13.417,5.369-13.417,11.629v2.684c-0.895,0-1.79,0.8-1.79,1.789v3.578  C49.065,36.85,49.867,37.651,50.855,37.651z M93.374,70.799c-0.381-0.846-0.765-1.155-1.295-1.525  c-3.889-2.71-14.838-8.927-27.69-9.003v-0.007c-0.04,0-0.077,0.004-0.116,0.004s-0.077-0.004-0.116-0.004v0.007  c-12.853,0.076-23.802,6.292-27.688,9.003c-0.533,0.37-0.914,0.679-1.298,1.525c-0.311,0.691-0.296,2.1-0.296,2.1v10.917h58.798  V72.898C93.672,72.898,93.687,71.49,93.374,70.799z M37.995,36.102H26.1V24.206h-7.876v11.896H6.328v7.875h11.896v11.896H26.1  V43.977h11.896V36.102z"></path></svg>